<?xml version="1.0" standalone="no"?>
<!DOCTYPE svg PUBLIC "-//W3C//DTD SVG 20010904//EN"
 "http://www.w3.org/TR/2001/REC-SVG-20010904/DTD/svg10.dtd">
<svg version="1.0" xmlns="http://www.w3.org/2000/svg"
 width="700.000000pt" height="700.000000pt" viewBox="0 0 700.000000 700.000000"
 preserveAspectRatio="xMidYMid meet">
<metadata>
Created by potrace 1.11, written by Peter Selinger 2001-2013
</metadata>
<g transform="translate(0.000000,700.000000) scale(0.100000,-0.100000)"
fill="#000000" stroke="none">
<path d="M1170 3501 l0 -3009 203 116 c2214 1275 5007 2888 5007 2892 0 5
-962 560 -5162 2983 l-48 27 0 -3009z m2275 914 c866 -500 1575 -912 1575
-915 -1 -4 -3139 -1820 -3161 -1828 -5 -2 -9 772 -9 1828 0 1176 3 1830 10
1828 5 -1 718 -412 1585 -913z"/>
</g>
</svg>
